<svg width="128" height="134" viewBox="0 0 128 134" fill="none" xmlns="http://www.w3.org/2000/svg">
<path fill-rule="evenodd" clip-rule="evenodd" d="M38.9498 116.081C36.7525 116.081 35.2349 118.28 36.0144 120.335C37.3901 123.954 35.6571 128.016 32.1017 129.511L22.7634 133.448C20.953 134.202 18.9162 134.184 17.1236 133.394C15.331 132.598 13.9375 131.103 13.2705 129.254L0.424424 93.3488C-0.879833 89.7116 0.918733 85.6914 4.49208 84.2557L13.211 80.744C14.9918 80.0321 16.975 80.068 18.7318 80.8337C20.4886 81.6114 21.8644 83.0591 22.5492 84.8539C22.7254 85.3259 23.3296 85.4594 23.6884 85.1057L30.6487 78.2433C32.3817 76.5264 34.4721 75.2162 36.7709 74.4027L36.7828 74.3967C44.6024 71.6627 51.7908 72.2551 58.4673 75.7009C59.0867 76.0239 59.6584 76.4367 60.1528 76.9272C60.522 77.2622 61.0223 77.7588 61.4928 78.2194C61.8442 78.5664 62.3266 78.7638 62.8209 78.7638H83.2902C85.1901 78.7638 87.0065 79.5236 88.3405 80.8696C89.0917 81.6242 90.3388 81.858 91.1349 81.1509L113.127 61.6188C115.944 59.1242 120.19 59.2378 122.87 61.876L125.86 64.8254C128.325 67.2541 128.706 71.1128 126.765 73.9784L103.271 108.735C100.168 113.33 95.0043 116.082 89.4776 116.082L38.9498 116.081ZM92.686 86.1523C91.2549 87.423 90.4359 89.2454 90.4359 91.1592C90.4359 93.0676 89.6855 94.8862 88.3396 96.2322C87.0056 97.5842 85.1891 98.338 83.2893 98.338H61.0697C59.7595 98.338 58.6934 97.2612 58.6934 95.9451C58.6934 94.6289 59.7595 93.5521 61.0697 93.5521H83.2893C83.9206 93.5521 84.5281 93.3009 84.9748 92.8522C85.4215 92.4035 85.6716 91.7933 85.6716 91.1592V85.9426C85.6716 85.3085 85.4215 84.7043 84.9748 84.2556C84.5281 83.8009 83.9207 83.5556 83.2893 83.5556H62.8199C61.075 83.5556 59.4015 82.8617 58.1508 81.6353C57.7161 81.1986 57.2396 80.732 56.9002 80.4149L56.8525 80.3671C56.6798 80.1996 56.4892 80.068 56.2808 79.9543C50.766 77.1067 44.8165 76.6521 38.3545 78.9134C36.7167 79.4996 35.2278 80.4329 33.989 81.6593L30.4523 85.1446C27.064 88.4836 25.9676 93.5073 27.6589 97.9535C28.3635 99.8058 29.102 101.747 29.7907 103.557C31.5618 108.213 36.0247 111.289 41.0058 111.289H89.4767C93.4192 111.289 97.1116 109.327 99.333 106.049L122.821 71.2918C123.47 70.3346 123.339 69.0545 122.517 68.2408L119.534 65.2915C118.64 64.4121 117.223 64.3762 116.282 65.2018L92.686 86.1523ZM64.3209 0C82.729 0 97.6717 15.0097 97.6717 33.4949C97.6717 51.992 82.7293 67.002 64.3209 67.002C45.9125 67.002 30.9701 51.9923 30.9701 33.4949C30.9701 15.01 45.9125 0 64.3209 0ZM64.3209 4.78586C48.5443 4.78586 35.7345 17.6538 35.7345 33.4949C35.7345 49.3487 48.5447 62.2162 64.3209 62.2162C80.0971 62.2162 92.9134 49.3483 92.9134 33.4949C92.9134 17.6533 80.0973 4.78586 64.3209 4.78586ZM64.3209 35.8932C58.1034 35.8932 53.2019 31.2868 53.2019 25.819C53.2019 21.7753 55.889 18.2011 59.8026 16.6189C61.0047 16.1329 61.9387 15.0493 61.9387 13.7526C61.9387 12.4365 63.0107 11.3657 64.3209 11.3657C65.6371 11.3657 66.7031 12.4365 66.7031 13.7526C66.7031 15.0492 67.6373 16.1327 68.8395 16.6182C72.7564 18.2 75.4399 21.7747 75.4399 25.819C75.4399 27.1411 74.3679 28.2179 73.0577 28.2179C71.7475 28.2179 70.6755 27.1411 70.6755 25.819C70.6755 22.8099 67.7453 20.5366 64.3209 20.5366C60.8965 20.5366 57.9723 22.8099 57.9723 25.819C57.9723 28.828 60.8965 31.1073 64.3209 31.1073C70.5384 31.1073 75.4399 35.7077 75.4399 41.1755C75.4399 45.2239 72.751 48.8015 68.8278 50.3847C67.6316 50.8674 66.7031 51.946 66.7031 53.2359C66.7031 54.564 65.6371 55.6348 64.3209 55.6348C63.0107 55.6348 61.9387 54.564 61.9387 53.2359C61.9387 51.9459 61.0103 50.8672 59.8142 50.3841C55.8943 48.8006 53.2019 45.2233 53.2019 41.1755C53.2019 39.8534 54.2739 38.7826 55.5841 38.7826C56.9063 38.7826 57.9723 39.8534 57.9723 41.1755C57.9723 44.1907 60.8965 46.4579 64.3209 46.4579C67.7453 46.4579 70.6755 44.1906 70.6755 41.1755C70.6755 38.1605 67.7453 35.8932 64.3209 35.8932Z" fill="black"/>
</svg>
