<svg width="170" height="96" viewBox="0 0 170 96" fill="none" xmlns="http://www.w3.org/2000/svg">
<path fill-rule="evenodd" clip-rule="evenodd" d="M21.25 79.5139C21.25 79.0679 20.8082 78.7557 20.38 78.8805C18.9698 79.2915 17.4764 79.5139 15.9375 79.5139C7.17196 79.5139 0 72.3576 0 63.6111V31.8056C0 23.0591 7.17196 15.9028 15.9375 15.9028C17.4764 15.9028 18.9697 16.1252 20.38 16.5362C20.8082 16.6609 21.25 16.3487 21.25 15.9028C21.25 7.15633 28.422 0 37.1875 0C45.953 0 53.125 7.15633 53.125 15.9028V30.4074C53.125 37.0348 58.4976 42.4074 65.125 42.4074H104.875C111.502 42.4074 116.875 37.0348 116.875 30.4074V15.9028C116.875 7.15633 124.047 0 132.812 0C141.578 0 148.75 7.15633 148.75 15.9028C148.75 16.3487 149.192 16.6609 149.62 16.5362C151.03 16.1252 152.524 15.9028 154.062 15.9028C162.828 15.9028 170 23.0591 170 31.8056V63.6111C170 72.3576 162.828 79.5139 154.062 79.5139C152.524 79.5139 151.03 79.2915 149.62 78.8805C149.192 78.7557 148.75 79.0679 148.75 79.5139C148.75 88.2603 141.578 95.4167 132.812 95.4167C124.047 95.4167 116.875 88.2603 116.875 79.5139V65.0093C116.875 58.3818 111.502 53.0093 104.875 53.0093H65.125C58.4976 53.0093 53.125 58.3818 53.125 65.0093V79.5139C53.125 88.2603 45.953 95.4167 37.1875 95.4167C28.422 95.4167 21.25 88.2603 21.25 79.5139ZM21.25 31.8055C21.25 28.8899 18.8595 26.5045 15.9375 26.5045C13.0155 26.5045 10.625 28.8899 10.625 31.8055V63.611C10.625 66.5266 13.0155 68.9119 15.9375 68.9119C18.8595 68.9119 21.25 66.5266 21.25 63.611V31.8055ZM42.5 79.5138V15.9027C42.5 12.9871 40.1095 10.6018 37.1875 10.6018C34.2655 10.6018 31.875 12.9871 31.875 15.9027V79.5138C31.875 82.4294 34.2655 84.8147 37.1875 84.8147C40.1095 84.8147 42.5 82.4294 42.5 79.5138ZM138.125 79.5138V15.9027C138.125 12.9871 135.734 10.6018 132.812 10.6018C129.891 10.6018 127.5 12.9871 127.5 15.9027V79.5138C127.5 82.4294 129.891 84.8147 132.812 84.8147C135.734 84.8147 138.125 82.4294 138.125 79.5138ZM148.75 63.611C148.75 66.5266 151.141 68.9119 154.062 68.9119C156.984 68.9119 159.375 66.5266 159.375 63.611V31.8055C159.375 28.8899 156.984 26.5045 154.062 26.5045C151.141 26.5045 148.75 28.8899 148.75 31.8055V63.611Z" fill="black"/>
</svg>
