<svg width="262" height="105" viewBox="0 0 262 105" fill="none" xmlns="http://www.w3.org/2000/svg">
<path d="M81.6258 31.9401L75.0943 25.4106C74.9246 25.2408 74.7116 25.1203 74.4786 25.0619C74.2456 25.004 74.0012 25.01 73.7715 25.0792C73.5417 25.1489 73.3352 25.2798 73.1741 25.4577C73.0125 25.6356 72.9028 25.8535 72.8557 26.0893L71.3967 33.3828L64.1008 34.8412C63.8651 34.8882 63.6472 34.998 63.4688 35.1596C63.291 35.3208 63.1607 35.5274 63.091 35.7572C63.0212 35.9864 63.0153 36.2309 63.0731 36.4639C63.1315 36.697 63.2521 36.9095 63.4218 37.0793L69.9538 43.6082C70.203 43.8569 70.5404 43.9964 70.8917 43.997C70.9799 43.997 71.0674 43.9878 71.1534 43.9705L78.6174 42.4759L89.952 53.8076C90.2018 54.0515 90.5375 54.1867 90.8867 54.1845C91.2354 54.1824 91.5695 54.0429 91.816 53.7963C92.063 53.5497 92.2025 53.2155 92.2047 52.8667C92.2068 52.518 92.0717 52.1827 91.8279 51.9329L80.4932 40.6006L81.988 33.1389C82.0312 32.9248 82.021 32.7031 81.9572 32.4938C81.8939 32.2851 81.7804 32.0947 81.6258 31.9401ZM71.3269 41.2305L67.0524 36.9544L72.0881 35.9486L76.3631 40.2226L71.3269 41.2305ZM78.239 38.3473L73.9639 34.0733L74.9705 29.039L79.2472 33.313L78.239 38.3473ZM77.534 47.0203C76.1631 50.1403 75.9257 53.6416 76.8637 56.918C77.8011 60.1949 79.8548 63.0408 82.6691 64.9642C85.4835 66.8876 88.8816 67.7669 92.276 67.4505C95.6704 67.1342 98.8475 65.6423 101.258 63.2322C103.668 60.8221 105.161 57.6453 105.476 54.2521C105.792 50.8584 104.911 47.4615 102.987 44.648C101.063 41.8351 98.2155 39.7824 94.9379 38.8459C91.6603 37.9088 88.1578 38.1467 85.0369 39.518L84.8131 39.2936L85.3613 36.5564C89.0595 35.2954 93.0756 35.3235 96.7559 36.6353C100.436 37.9477 103.564 40.4665 105.629 43.7818C107.695 47.0976 108.577 51.0147 108.132 54.8951C107.687 58.776 105.941 62.3914 103.178 65.1535C100.415 67.9156 96.7981 69.6616 92.9166 70.1066C89.0346 70.5517 85.1164 69.6697 81.7999 67.6052C78.4833 65.5401 75.9636 62.4135 74.651 58.7343C73.3385 55.0551 73.3104 51.0401 74.5716 47.3431L77.3102 46.7964L77.534 47.0203ZM63.0337 52.8695C63.0391 49.7975 63.5564 46.7477 64.5641 43.845L66.6746 45.955C65.1225 51.3413 65.4047 57.0905 67.4773 62.2989C69.55 67.5073 73.2952 71.8792 78.1243 74.7273C82.9535 77.5754 88.593 78.7379 94.1551 78.0328C99.7173 77.3272 104.888 74.7938 108.852 70.8302C112.817 66.8665 115.352 61.6981 116.058 56.1377C116.764 50.5767 115.602 44.9395 112.753 40.1112C109.904 35.2835 105.531 31.5389 100.322 29.4662C95.112 27.3941 89.3611 27.1113 83.9736 28.6627L81.8631 26.5516C87.4436 24.6433 93.487 24.5557 99.1205 26.3023C104.755 28.0489 109.687 31.5394 113.209 36.2698C116.73 41.0007 118.658 46.7272 118.714 52.6234C118.769 58.5197 116.95 64.2818 113.519 69.0776C110.088 73.874 105.221 77.4569 99.6211 79.3095C94.0216 81.1621 87.9778 81.1886 82.3615 79.3858C76.7458 77.5829 71.8481 74.0432 68.3742 69.2777C64.9003 64.5121 63.0304 58.7662 63.0337 52.8695Z" fill="#F4F3F2"/>
<path d="M0.000396729 51.8427C0.000396729 46.8679 1.00951 42.3976 3.02772 38.4324C5.04592 34.3946 7.92913 31.1864 11.6772 28.8072C15.4253 26.4279 19.8582 25.2383 24.9758 25.2383C29.7331 25.2383 33.8055 26.3917 37.1933 28.699C40.581 30.9339 42.9956 34.0702 44.4372 38.1079L43.1398 39.5138L44.221 26.7524H53.303V77.4738C53.303 83.0256 52.2218 87.8198 50.0594 91.8576C47.897 95.9672 44.8336 99.1397 40.8693 101.375C36.905 103.609 32.2198 104.727 26.8139 104.727C19.606 104.727 13.6954 102.817 9.08238 98.9953C4.46933 95.1739 1.65824 89.9109 0.64911 83.2057H10.8123C11.461 87.099 13.1909 90.1272 16.002 92.2901C18.8131 94.4531 22.417 95.5346 26.8139 95.5346C31.7873 95.5346 35.7517 94.0205 38.7069 90.9924C41.7343 88.0361 43.2479 84.0346 43.2479 78.9879V64.0635L44.5453 65.4694C43.1759 69.4347 40.6891 72.5709 37.0851 74.8783C33.4812 77.1132 29.3006 78.2309 24.5434 78.2309C19.4978 78.2309 15.137 77.0775 11.461 74.7701C7.78495 72.3909 4.9378 69.2183 2.9196 65.2531C0.973466 61.2878 0.000396729 56.8175 0.000396729 51.8427ZM10.1636 51.6264C10.1636 54.9428 10.8123 57.9353 12.1097 60.6027C13.4792 63.2702 15.3533 65.3975 17.7319 66.9835C20.1826 68.5695 23.0297 69.3627 26.2733 69.3627C29.7331 69.3627 32.6883 68.6057 35.139 67.0916C37.5897 65.5775 39.4638 63.4865 40.7612 60.819C42.1307 58.1515 42.8154 55.0872 42.8154 51.6264C42.8154 48.1657 42.1667 45.1375 40.8693 42.542C39.5719 39.9464 37.6978 37.8916 35.2471 36.3775C32.7965 34.8635 29.8412 34.1064 26.3814 34.1064C22.9936 34.1064 20.0744 34.8997 17.6238 36.4857C15.2451 38.0717 13.4071 40.199 12.1097 42.8664C10.8123 45.462 10.1636 48.382 10.1636 51.6264Z" fill="#F4F3F2"/>
<path d="M126.932 53.1408C126.932 47.7334 128.121 42.9386 130.5 38.7571C132.878 34.5755 136.122 31.2949 140.23 28.9156C144.411 26.5363 149.168 25.3467 154.502 25.3467C159.836 25.3467 164.557 26.5363 168.666 28.9156C172.774 31.2949 176.018 34.5755 178.396 38.7571C180.775 42.9386 181.964 47.7334 181.964 53.1408C181.964 58.5482 180.775 63.3429 178.396 67.5245C176.018 71.706 172.774 74.9867 168.666 77.366C164.557 79.7452 159.836 80.9349 154.502 80.9349C149.168 80.9349 144.411 79.7452 140.23 77.366C136.122 74.9867 132.878 71.706 130.5 67.5245C128.121 63.3429 126.932 58.5482 126.932 53.1408ZM137.203 53.1408C137.203 56.8178 137.924 60.0623 139.366 62.8741C140.879 65.686 142.933 67.8852 145.528 69.4712C148.123 71.0571 151.114 71.8504 154.502 71.8504C157.89 71.8504 160.881 71.0571 163.476 69.4712C166.071 67.8852 168.089 65.686 169.531 62.8741C171.044 60.0623 171.801 56.8178 171.801 53.1408C171.801 49.3918 171.044 46.1474 169.531 43.4074C168.089 40.5956 166.071 38.3964 163.476 36.8104C160.881 35.2244 157.89 34.4311 154.502 34.4311C151.114 34.4311 148.123 35.2244 145.528 36.8104C142.933 38.3964 140.879 40.5956 139.366 43.4074C137.924 46.1474 137.203 49.3918 137.203 53.1408ZM208.676 80.9349C203.053 80.9349 198.621 79.457 195.377 76.5008C192.205 73.5446 190.62 69.6875 190.62 64.9289C190.62 60.0985 192.35 56.2408 195.81 53.3571C199.269 50.4008 204.098 48.6705 210.297 48.166L226.948 46.8682V45.3541C226.948 42.3979 226.407 40.0549 225.326 38.3245C224.245 36.5222 222.767 35.2601 220.893 34.5393C219.019 33.746 216.893 33.3497 214.514 33.3497C210.261 33.3497 206.946 34.2511 204.567 36.0534C202.26 37.7837 201.107 40.2711 201.107 43.5156H192.242C192.242 39.8386 193.178 36.6303 195.053 33.8904C196.927 31.1505 199.557 29.0237 202.945 27.5097C206.405 25.9956 210.406 25.2386 214.947 25.2386C219.343 25.2386 223.164 26.0318 226.407 27.6178C229.723 29.1319 232.282 31.4749 234.084 34.6474C235.958 37.7475 236.895 41.6771 236.895 46.4356V79.6371H228.245L227.164 71.0934C225.795 74.1215 223.416 76.537 220.028 78.3393C216.713 80.0697 212.929 80.9349 208.676 80.9349ZM211.595 73.04C216.424 73.04 220.208 71.5979 222.947 68.7141C225.687 65.7579 227.056 61.7926 227.056 56.8178V54.006L213.541 55.0875C209.072 55.52 205.828 56.5653 203.81 58.2237C201.864 59.8822 200.891 62.0089 200.891 64.6045C200.891 67.4163 201.828 69.5431 203.702 70.9852C205.648 72.3549 208.279 73.04 211.595 73.04ZM261.349 79.6371H251.186V0.0400391H261.349V79.6371Z" fill="#F4F3F2"/>
</svg>
