<svg width="505" height="270" viewBox="0 0 505 270" fill="none" xmlns="http://www.w3.org/2000/svg">
<path d="M158.392 123.793L146.31 111.718C145.996 111.404 145.602 111.181 145.171 111.073C144.74 110.966 144.288 110.977 143.863 111.105C143.438 111.234 143.056 111.476 142.758 111.805C142.459 112.134 142.256 112.537 142.169 112.973L139.47 126.461L125.974 129.158C125.538 129.245 125.135 129.448 124.805 129.747C124.476 130.045 124.235 130.427 124.106 130.852C123.977 131.276 123.966 131.728 124.073 132.159C124.181 132.59 124.404 132.983 124.718 133.297L136.801 145.371C137.262 145.831 137.886 146.089 138.536 146.09C138.699 146.09 138.861 146.073 139.02 146.041L152.827 143.277L173.794 164.233C174.256 164.684 174.877 164.934 175.523 164.93C176.168 164.926 176.786 164.668 177.242 164.212C177.699 163.756 177.957 163.138 177.961 162.493C177.965 161.848 177.715 161.228 177.264 160.766L156.297 139.809L159.062 126.01C159.142 125.614 159.123 125.204 159.005 124.817C158.888 124.431 158.678 124.079 158.392 123.793ZM139.341 140.974L131.434 133.066L140.749 131.206L148.657 139.11L139.341 140.974ZM152.127 135.642L144.219 127.738L146.081 118.428L153.992 126.332L152.127 135.642ZM150.823 151.681C148.287 157.451 147.848 163.926 149.583 169.985C151.317 176.045 155.116 181.308 160.322 184.865C165.528 188.422 171.814 190.048 178.093 189.463C184.372 188.878 190.249 186.119 194.708 181.662C199.167 177.205 201.927 171.33 202.511 165.055C203.095 158.779 201.466 152.497 197.907 147.294C194.347 142.092 189.08 138.296 183.017 136.564C176.954 134.831 170.475 135.271 164.702 137.807L164.288 137.392L165.302 132.33C172.143 129.998 179.572 130.05 186.38 132.476C193.187 134.903 198.973 139.561 202.794 145.692C206.615 151.824 208.246 159.068 207.423 166.244C206.6 173.421 203.37 180.107 198.259 185.215C193.148 190.323 186.458 193.552 179.278 194.375C172.097 195.198 164.849 193.567 158.714 189.749C152.579 185.93 147.918 180.148 145.49 173.344C143.062 166.54 143.01 159.115 145.343 152.278L150.409 151.267L150.823 151.681ZM124 162.498C124.01 156.817 124.967 151.177 126.831 145.809L130.735 149.711C127.864 159.672 128.386 170.304 132.22 179.936C136.054 189.568 142.982 197.653 151.915 202.92C160.848 208.187 171.28 210.337 181.569 209.033C191.858 207.728 201.422 203.043 208.756 195.713C216.09 188.383 220.779 178.825 222.085 168.542C223.391 158.258 221.241 147.833 215.971 138.904C210.702 129.976 202.613 123.051 192.976 119.218C183.339 115.386 172.701 114.863 162.735 117.732L158.831 113.828C169.154 110.299 180.333 110.137 190.754 113.367C201.176 116.597 210.301 123.052 216.815 131.8C223.329 140.549 226.895 151.139 226.998 162.043C227.101 172.947 223.736 183.603 217.388 192.472C211.041 201.342 202.039 207.968 191.68 211.394C181.322 214.82 170.142 214.869 159.753 211.535C149.365 208.201 140.305 201.655 133.879 192.842C127.453 184.029 123.994 173.403 124 162.498Z" fill="#F4F3F2"/>
<path d="M7.4 160.6C7.4 151.4 9.26667 143.133 13 135.8C16.7333 128.333 22.0667 122.4 29 118C35.9333 113.6 44.1333 111.4 53.6 111.4C62.4 111.4 69.9333 113.533 76.2 117.8C82.4667 121.933 86.9333 127.733 89.6 135.2L87.2 137.8L89.2 114.2H106V208C106 218.267 104 227.133 100 234.6C96 242.2 90.3333 248.067 83 252.2C75.6667 256.333 67 258.4 57 258.4C43.6667 258.4 32.7333 254.867 24.2 247.8C15.6667 240.733 10.4667 231 8.6 218.6H27.4C28.6 225.8 31.8 231.4 37 235.4C42.2 239.4 48.8667 241.4 57 241.4C66.2 241.4 73.5333 238.6 79 233C84.6 227.533 87.4 220.133 87.4 210.8V183.2L89.8 185.8C87.2667 193.133 82.6667 198.933 76 203.2C69.3333 207.333 61.6 209.4 52.8 209.4C43.4667 209.4 35.4 207.267 28.6 203C21.8 198.6 16.5333 192.733 12.8 185.4C9.2 178.067 7.4 169.8 7.4 160.6ZM26.2 160.2C26.2 166.333 27.4 171.867 29.8 176.8C32.3333 181.733 35.8 185.667 40.2 188.6C44.7333 191.533 50 193 56 193C62.4 193 67.8667 191.6 72.4 188.8C76.9333 186 80.4 182.133 82.8 177.2C85.3333 172.267 86.6 166.6 86.6 160.2C86.6 153.8 85.4 148.2 83 143.4C80.6 138.6 77.1333 134.8 72.6 132C68.0667 129.2 62.6 127.8 56.2 127.8C49.9333 127.8 44.5333 129.267 40 132.2C35.6 135.133 32.2 139.067 29.8 144C27.4 148.8 26.2 154.2 26.2 160.2Z" fill="#F4F3F2"/>
<path d="M242.2 163C242.2 153 244.4 144.133 248.8 136.4C253.2 128.667 259.2 122.6 266.8 118.2C274.533 113.8 283.333 111.6 293.2 111.6C303.067 111.6 311.8 113.8 319.4 118.2C327 122.6 333 128.667 337.4 136.4C341.8 144.133 344 153 344 163C344 173 341.8 181.867 337.4 189.6C333 197.333 327 203.4 319.4 207.8C311.8 212.2 303.067 214.4 293.2 214.4C283.333 214.4 274.533 212.2 266.8 207.8C259.2 203.4 253.2 197.333 248.8 189.6C244.4 181.867 242.2 173 242.2 163ZM261.2 163C261.2 169.8 262.533 175.8 265.2 181C268 186.2 271.8 190.267 276.6 193.2C281.4 196.133 286.933 197.6 293.2 197.6C299.467 197.6 305 196.133 309.8 193.2C314.6 190.267 318.333 186.2 321 181C323.8 175.8 325.2 169.8 325.2 163C325.2 156.067 323.8 150.067 321 145C318.333 139.8 314.6 135.733 309.8 132.8C305 129.867 299.467 128.4 293.2 128.4C286.933 128.4 281.4 129.867 276.6 132.8C271.8 135.733 268 139.8 265.2 145C262.533 150.067 261.2 156.067 261.2 163ZM393.411 214.4C383.011 214.4 374.811 211.667 368.811 206.2C362.944 200.733 360.011 193.6 360.011 184.8C360.011 175.867 363.211 168.733 369.611 163.4C376.011 157.933 384.944 154.733 396.411 153.8L427.211 151.4V148.6C427.211 143.133 426.211 138.8 424.211 135.6C422.211 132.267 419.478 129.933 416.011 128.6C412.544 127.133 408.611 126.4 404.211 126.4C396.344 126.4 390.211 128.067 385.811 131.4C381.544 134.6 379.411 139.2 379.411 145.2H363.011C363.011 138.4 364.744 132.467 368.211 127.4C371.678 122.333 376.544 118.4 382.811 115.6C389.211 112.8 396.611 111.4 405.011 111.4C413.144 111.4 420.211 112.867 426.211 115.8C432.344 118.6 437.078 122.933 440.411 128.8C443.878 134.533 445.611 141.8 445.611 150.6V212H429.611L427.611 196.2C425.078 201.8 420.678 206.267 414.411 209.6C408.278 212.8 401.278 214.4 393.411 214.4ZM398.811 199.8C407.744 199.8 414.744 197.133 419.811 191.8C424.878 186.333 427.411 179 427.411 169.8V164.6L402.411 166.6C394.144 167.4 388.144 169.333 384.411 172.4C380.811 175.467 379.011 179.4 379.011 184.2C379.011 189.4 380.744 193.333 384.211 196C387.811 198.533 392.678 199.8 398.811 199.8ZM490.847 212H472.047V64.8H490.847V212Z" fill="#F4F3F2"/>
</svg>
