<svg width="167" height="132" viewBox="0 0 167 132" fill="none" xmlns="http://www.w3.org/2000/svg">
<path d="M158.42 25.5514C141.833 37.5358 123.715 38.4018 121.174 38.4644C120.965 38.4695 120.766 38.4643 120.557 38.4509C111.078 37.8452 104.355 32.5832 108.885 39.212C111.194 42.5911 116.171 44.6497 120.537 45.8603C125.282 47.1757 128.844 50.634 128.771 55.5575C128.694 60.7506 128.371 69.1614 127.477 82.6989C125.386 114.35 136.035 84.1086 138.672 71.8105C141.308 59.5123 146.86 96.8632 153.224 93.9976C158.049 91.8246 153.625 64.1676 151.204 50.9246C150.415 46.6066 151.986 42.2146 155.027 39.0492C165.056 28.6099 173.688 14.5192 158.42 25.5514Z" fill="black"/>
<path d="M129.203 26.8759C133.998 29.9984 138.304 27.1562 139.7 26.0303C140.027 25.7667 140.307 25.458 140.552 25.1172C141.839 23.3304 145.703 17.1981 140.856 13.8424C135.64 10.2313 129.821 15.7215 128.843 16.7093C128.745 16.8085 128.655 16.9093 128.569 17.0191C127.782 18.0196 123.911 23.4301 129.203 26.8759ZM131.793 20.6001C133.375 20.4427 136.406 22.6674 134.941 23.2843C134.075 23.6494 133.088 23.5973 132.021 22.7412C131.096 21.9994 130.614 20.7174 131.793 20.6001Z" fill="black"/>
<path d="M99.5698 61.535C89.8712 63.7192 77.369 64.535 66.6857 56.4888C57.4433 49.5279 55.3452 51.3138 54.9473 51.9223C54.8805 52.0244 54.8439 52.137 54.8115 52.2547C53.8851 55.618 58.5133 62.6257 62.3886 67.7214C65.2397 71.4704 65.9729 76.4587 64.3336 80.8741C59.6063 93.6066 57.8299 105.604 57.5147 119.947C57.1412 136.942 62.2712 126.405 63.7191 121.428C65.3603 115.787 73.1336 117.7 74.5931 123.391C80.17 145.137 83.7703 116.91 84.9206 106.029C85.8102 97.6147 88.5419 86.3357 90.2853 79.6779C91.2129 76.1358 93.7819 73.2909 97.1148 71.7746C103.069 69.0658 111.89 64.6679 111.781 62.4314C111.615 59.059 109.268 59.3509 99.5698 61.535Z" fill="black"/>
<path d="M86.8207 48.0276C92.8843 51.3549 98.509 46.0267 100.15 43.0207C101.791 40.0148 104.117 32.3558 94.768 30.3704C84.3596 28.1598 82.8442 38.1641 82.6332 40.4994C82.6041 40.8217 82.6069 41.1388 82.6516 41.4594C82.8304 42.7423 83.6054 46.2633 86.8207 48.0276Z" fill="black"/>
<path d="M65.2786 36.1283C71.6372 27.5226 63.4472 36.2798 45.3146 35.7749C38.532 35.586 35.2499 35.3402 33.7986 35.1066C32.1823 34.8464 34.7929 33.9264 36.1866 33.0677C39.4881 31.0335 45.7846 27.0582 48.7134 24.5703C52.6423 21.2326 54.3098 17.4811 46.4526 20.6773C45.8618 20.9176 45.262 21.1282 44.6408 21.2728C41.7982 21.9346 32.9724 23.8206 26.1644 23.4499C17.9371 23.0019 13.0441 33.549 10.7787 41.044C3.91281 63.7605 -2.64022 86.5612 1.07811 87.3649C4.79655 88.1686 10.2696 76.0111 13.909 69.604C17.5486 63.1971 17.6133 70.1255 16.5434 85.4574C15.9415 94.0838 19.2977 100.88 25.1784 79.9315C29.1792 65.6798 34.918 56.055 38.1783 51.3577C39.7215 49.1344 42.1424 47.7833 44.7606 47.0978C50.511 45.5921 60.8166 42.1673 65.2786 36.1283Z" fill="black"/>
<path d="M32.259 18.0392C35.9886 17.9853 38.1958 16.3751 39.4872 14.6869C40.5582 13.2868 40.4243 11.3145 38.7101 11.7255C36.8188 12.1789 35.5542 9.97067 37.3615 9.25194C38.2143 8.91277 39.0836 8.47478 39.8981 7.90928C40.6649 7.37688 41.0365 6.44757 40.8225 5.53892C40.3166 3.39046 38.6508 -0.3488 33.1944 0.0262026C27.1254 0.443489 25.0167 6.32622 24.4111 8.69495C24.2454 9.34283 24.1992 10.0087 24.2946 10.6706C24.6173 12.909 26.037 18.1288 32.259 18.0392Z" fill="black"/>
</svg>
