<svg width="169" height="67" viewBox="0 0 169 67" fill="none" xmlns="http://www.w3.org/2000/svg">
<path d="M52.8885 20.6398L48.7016 16.4807C48.5928 16.3725 48.4563 16.2957 48.3069 16.2585C48.1576 16.2216 48.001 16.2254 47.8537 16.2695C47.7064 16.314 47.574 16.3973 47.4708 16.5106C47.3671 16.624 47.2968 16.7628 47.2667 16.9129L46.3314 21.5588L41.6545 22.4878C41.5034 22.5177 41.3638 22.5877 41.2494 22.6906C41.1354 22.7933 41.0519 22.9249 41.0072 23.0713C40.9625 23.2173 40.9587 23.373 40.9958 23.5214C41.0332 23.6699 41.1105 23.8053 41.2193 23.9134L45.4064 28.0723C45.5662 28.2307 45.7824 28.3196 46.0077 28.3199C46.0642 28.3199 46.1203 28.314 46.1754 28.303L50.96 27.351L58.2258 34.5692C58.3859 34.7245 58.6011 34.8106 58.825 34.8092C59.0485 34.8079 59.2626 34.719 59.4207 34.5619C59.579 34.4049 59.6684 34.192 59.6698 33.9698C59.6712 33.7477 59.5846 33.5341 59.4283 33.375L52.1625 26.1565L53.1207 21.4035C53.1484 21.2671 53.1418 21.1258 53.1009 20.9925C53.0604 20.8596 52.9876 20.7383 52.8885 20.6398ZM46.2867 26.5577L43.5466 23.8339L46.7746 23.1932L49.515 25.9157L46.2867 26.5577ZM50.7174 24.7211L47.977 21.9987L48.6223 18.7919L51.3637 21.5144L50.7174 24.7211ZM50.2656 30.2457C49.3867 32.2331 49.2346 34.4634 49.8359 36.5504C50.4367 38.6377 51.7532 40.4506 53.5573 41.6757C55.3614 42.9009 57.5397 43.461 59.7156 43.2595C61.8915 43.058 63.928 42.1077 65.4732 40.5725C67.0184 39.0373 67.9749 37.0137 68.1772 34.8523C68.3796 32.6906 67.8151 30.5268 66.5818 28.7346C65.3481 26.9428 63.5229 25.6353 61.4219 25.0387C59.3209 24.4418 57.0757 24.5934 55.0751 25.4669L54.9316 25.3239L55.283 23.5804C57.6537 22.7771 60.2281 22.795 62.5873 23.6306C64.9462 24.4666 66.9512 26.071 68.2753 28.1828C69.5994 30.2949 70.1646 32.7901 69.8794 35.2618C69.5942 37.7339 68.4749 40.0369 66.7038 41.7963C64.9326 43.5557 62.6143 44.6679 60.1262 44.9514C57.6377 45.2349 55.1261 44.6731 53.0001 43.358C50.8741 42.0426 49.2589 40.051 48.4175 37.7074C47.5761 35.3638 47.5581 32.8063 48.3666 30.4513L50.1221 30.1031L50.2656 30.2457ZM40.9705 33.9715C40.9739 32.0148 41.3056 30.0721 41.9515 28.2231L43.3044 29.5671C42.3095 32.9981 42.4904 36.6603 43.819 39.978C45.1476 43.2957 47.5484 46.0805 50.644 47.8947C53.7396 49.7089 57.3546 50.4494 60.9201 50.0003C64.4856 49.5508 67.7999 47.937 70.3414 45.4123C72.8828 42.8875 74.5077 39.5953 74.9603 36.0534C75.4129 32.5111 74.6678 28.9203 72.8416 25.8447C71.0157 22.7695 68.2126 20.3843 64.873 19.064C61.5335 17.7441 57.847 17.5639 54.3935 18.5522L53.0406 17.2074C56.6179 15.9919 60.4918 15.9361 64.103 17.0486C67.7146 18.1612 70.8767 20.3846 73.1341 23.3978C75.3914 26.4113 76.6271 30.059 76.6628 33.8148C76.6985 37.5706 75.5324 41.241 73.3326 44.2959C71.1332 47.3511 68.0137 49.6334 64.4239 50.8135C60.8345 51.9936 56.9603 52.0104 53.3601 50.8621C49.7603 49.7137 46.6207 47.459 44.3939 44.4234C42.167 41.3878 40.9684 37.7277 40.9705 33.9715Z" fill="#2C4A2D"/>
<path d="M0.564209 33.3178C0.564209 30.1489 1.21107 27.3014 2.5048 24.7755C3.79852 22.2036 5.64673 20.16 8.04936 18.6444C10.452 17.1289 13.2936 16.3711 16.5741 16.3711C19.6236 16.3711 22.2342 17.1058 24.4058 18.5755C26.5774 19.9991 28.1253 21.9969 29.0494 24.5689L28.2177 25.4644L28.9107 17.3355H34.7325V49.6444C34.7325 53.1808 34.0395 56.2347 32.6533 58.8067C31.2672 61.4244 29.3035 63.4453 26.7622 64.8689C24.221 66.2925 21.2177 67.0044 17.7523 67.0044C13.1319 67.0044 9.34308 65.7875 6.38599 63.3533C3.42891 60.9191 1.62693 57.5667 0.980051 53.2955H7.4949C7.91074 55.7755 9.01965 57.7044 10.8216 59.0822C12.6236 60.46 14.9339 61.1489 17.7523 61.1489C20.9404 61.1489 23.4817 60.1844 25.3761 58.2555C27.3167 56.3725 28.287 53.8236 28.287 50.6089V41.1022L29.1187 41.9978C28.2408 44.5236 26.6467 46.5213 24.3365 47.9911C22.0262 49.4147 19.3464 50.1266 16.2969 50.1266C13.0626 50.1266 10.2672 49.3919 7.91074 47.9222C5.55431 46.4066 3.72921 44.3858 2.4355 41.86C1.18797 39.3342 0.564209 36.4867 0.564209 33.3178ZM7.07906 33.18C7.07906 35.2925 7.4949 37.1986 8.32658 38.8978C9.20446 40.5969 10.4058 41.952 11.9305 42.9622C13.5015 43.9725 15.3266 44.4778 17.4058 44.4778C19.6236 44.4778 21.518 43.9955 23.089 43.0311C24.6599 42.0667 25.8612 40.7347 26.6929 39.0355C27.5708 37.3364 28.0098 35.3844 28.0098 33.18C28.0098 30.9755 27.5939 29.0466 26.7622 27.3933C25.9305 25.74 24.7292 24.4311 23.1583 23.4666C21.5873 22.5022 19.6929 22.02 17.4751 22.02C15.3035 22.02 13.4322 22.5253 11.8612 23.5355C10.3365 24.5458 9.15827 25.9008 8.32658 27.6C7.4949 29.2533 7.07906 31.1133 7.07906 33.18Z" fill="#2C4A2D"/>
<path d="M81.9307 34.1448C81.9307 30.7003 82.693 27.6461 84.2178 24.9825C85.7425 22.3189 87.8218 20.2292 90.4554 18.7136C93.1352 17.1981 96.1847 16.4403 99.6039 16.4403C103.023 16.4403 106.049 17.1981 108.683 18.7136C111.317 20.2292 113.396 22.3189 114.921 24.9825C116.446 27.6461 117.208 30.7003 117.208 34.1448C117.208 37.5892 116.446 40.6434 114.921 43.307C113.396 45.9706 111.317 48.0603 108.683 49.5759C106.049 51.0914 103.023 51.8492 99.6039 51.8492C96.1847 51.8492 93.1352 51.0914 90.4554 49.5759C87.8218 48.0603 85.7425 45.9706 84.2178 43.307C82.693 40.6434 81.9307 37.5892 81.9307 34.1448ZM88.5148 34.1448C88.5148 36.487 88.9768 38.5536 89.901 40.3448C90.8713 42.1359 92.1881 43.5367 93.8515 44.547C95.5148 45.5572 97.4322 46.0625 99.6039 46.0625C101.776 46.0625 103.693 45.5572 105.356 44.547C107.02 43.5367 108.313 42.1359 109.238 40.3448C110.208 38.5536 110.693 36.487 110.693 34.1448C110.693 31.7567 110.208 29.6901 109.238 27.9448C108.313 26.1536 107.02 24.7528 105.356 23.7425C103.693 22.7323 101.776 22.227 99.6039 22.227C97.4322 22.227 95.5148 22.7323 93.8515 23.7425C92.1881 24.7528 90.8713 26.1536 89.901 27.9448C88.9768 29.6901 88.5148 31.7567 88.5148 34.1448ZM134.331 51.8492C130.727 51.8492 127.885 50.9078 125.806 49.0248C123.773 47.1417 122.756 44.6848 122.756 41.6536C122.756 38.5767 123.865 36.1195 126.083 34.2825C128.301 32.3995 131.396 31.2972 135.37 30.9759L146.043 30.1492V29.1848C146.043 27.3017 145.697 25.8092 145.004 24.707C144.311 23.5589 143.364 22.755 142.162 22.2959C140.961 21.7906 139.598 21.5381 138.073 21.5381C135.347 21.5381 133.222 22.1123 131.697 23.2603C130.218 24.3625 129.479 25.947 129.479 28.0136H123.796C123.796 25.6714 124.396 23.6278 125.598 21.8825C126.799 20.1372 128.486 18.7825 130.657 17.8181C132.875 16.8536 135.439 16.3714 138.35 16.3714C141.169 16.3714 143.618 16.8767 145.697 17.887C147.822 18.8514 149.463 20.3439 150.618 22.3648C151.819 24.3395 152.42 26.8425 152.42 29.8736V51.0225H146.875L146.182 45.5803C145.304 47.5092 143.779 49.0478 141.608 50.1959C139.482 51.2981 137.057 51.8492 134.331 51.8492ZM136.202 46.8203C139.297 46.8203 141.723 45.9017 143.479 44.0648C145.235 42.1817 146.113 39.6559 146.113 36.487V34.6959L137.449 35.3848C134.585 35.6603 132.505 36.3261 131.212 37.3825C129.964 38.4389 129.34 39.7936 129.34 41.447C129.34 43.2381 129.941 44.5928 131.142 45.5114C132.39 46.3839 134.077 46.8203 136.202 46.8203ZM168.095 51.0225H161.581V0.320312H168.095V51.0225Z" fill="#2C4A2D"/>
</svg>
