<svg width="795" height="774" viewBox="0 0 795 774" fill="none" xmlns="http://www.w3.org/2000/svg">
<path d="M265.449 96.1333L172.197 5.39441C169.772 3.03616 166.735 1.36257 163.409 0.552129C160.084 -0.258313 156.594 -0.175207 153.313 0.79258C150.033 1.76037 147.083 3.57654 144.78 6.04739C142.477 8.51824 140.906 11.5511 140.235 14.8225L119.402 116.18L15.2363 136.451C11.874 137.104 8.75665 138.632 6.21688 140.873C3.67711 143.114 1.81015 145.984 0.815134 149.176C-0.179879 152.369 -0.265616 155.764 0.567068 159C1.39975 162.236 3.11962 165.192 5.54322 167.552L98.8073 258.283C102.36 261.737 107.175 263.679 112.197 263.683C113.452 263.684 114.703 263.561 115.932 263.314L222.499 242.549L384.334 400.025C387.901 403.409 392.694 405.289 397.675 405.259C402.657 405.229 407.425 403.29 410.948 399.863C414.47 396.436 416.463 391.796 416.495 386.949C416.527 382.102 414.595 377.438 411.118 373.967L249.279 216.491L270.627 112.796C271.242 109.819 271.091 106.74 270.188 103.832C269.284 100.925 267.657 98.2805 265.449 96.1333ZM118.409 225.241L57.376 165.816L129.273 151.839L190.314 211.231L118.409 225.241ZM217.094 185.173L156.06 125.778L170.428 55.8188L231.491 115.211L217.094 185.173ZM207.033 305.696C187.457 349.059 184.07 397.715 197.457 443.25C210.845 488.785 240.166 528.336 280.349 555.063C320.532 581.79 369.051 594.013 417.515 589.618C465.979 585.222 511.34 564.485 545.755 530.992C580.169 497.5 601.473 453.357 605.982 406.199C610.49 359.041 597.92 311.832 570.446 272.737C542.971 233.642 502.319 205.118 455.52 192.1C408.721 179.081 358.717 182.386 314.157 201.442L310.96 198.327L318.79 160.283C371.59 142.763 428.93 143.151 481.475 161.384C534.02 179.617 578.673 214.622 608.166 260.698C637.658 306.774 650.251 361.208 643.896 415.137C637.54 469.065 612.61 519.312 573.163 557.696C533.717 596.08 482.079 620.339 426.657 626.525C371.234 632.711 315.292 620.458 267.938 591.762C220.585 563.066 184.61 519.617 165.87 468.489C147.13 417.361 146.73 361.566 164.735 310.189L203.833 302.585L207.033 305.696ZM0.00162078 386.989C0.0802771 344.294 7.46398 301.909 21.8499 261.574L51.9859 290.898C29.8211 365.749 33.8517 445.645 63.4438 518.023C93.036 590.402 146.511 651.158 215.461 690.737C284.411 730.317 364.925 746.475 444.342 736.672C523.76 726.869 597.576 691.659 654.185 636.581C710.794 581.502 746.984 509.678 757.065 432.402C767.146 355.127 750.546 276.782 709.875 209.688C669.205 142.594 606.77 90.5553 532.388 61.7553C458.007 32.9553 375.898 29.0272 298.972 50.5888L268.839 21.2541C348.522 -5.26987 434.803 -6.4832 515.24 17.7891C595.677 42.0613 666.113 90.5648 716.39 156.305C766.667 222.045 794.187 301.624 794.982 383.566C795.777 465.508 769.805 545.578 720.812 612.23C671.819 678.882 602.336 728.67 522.385 754.415C442.433 780.161 356.144 780.532 275.961 755.476C195.778 730.42 125.846 681.232 76.2485 615.005C26.6511 548.778 -0.0479584 468.934 0.00162078 386.989Z" fill="#2C4A2D" fill-opacity="0.04"/>
</svg>
